<?xml version="1.0" encoding="UTF-8"?>
<svg id="Layer_1" xmlns="http://www.w3.org/2000/svg" viewBox="0 0 292.66 333.23">
  <defs>
    <style>
      .cls-1 {
        fill: #900;
      }

      .cls-2 {
        fill: #fff;
      }

      .cls-3 {
        fill: #011f5b;
      }
    </style>
  </defs>
  <path class="cls-2" d="M292.66,0H0s0,145.12,0,145.88c-.19,63.51,35,109.5,64.56,136.91,32.51,30.14,68.34,47.51,80.32,50.12l1.45.31,1.47-.31c11.96-2.61,47.8-19.98,80.31-50.12,29.56-27.4,64.75-73.4,64.56-136.9,0-1.82,0-145.89,0-145.89Z"/>
  <g>
    <path class="cls-1" d="M7.4,7.71s.39,84.78-.02,84.37h277.9V7.71H7.4ZM81.97,61.08h0c.43.33.87.68,1.18,1.14.33.49.5,1.07.49,1.69.01.6-.16,1.18-.49,1.67-.31.46-.76.81-1.18,1.14-.66.52-1.29,1.01-1.29,1.86v5.2h-30.68s-30.68,0-30.68,0v-5.2c0-.85-.63-1.34-1.29-1.86-.43-.33-.87-.68-1.18-1.14-.33-.49-.5-1.07-.49-1.7-.01-.6.16-1.18.49-1.67.31-.46.76-.81,1.18-1.14.66-.52,1.29-1.01,1.29-1.86v-16.96c0-.85-.63-1.34-1.29-1.86-.43-.33-.87-.68-1.18-1.14-.33-.49-.5-1.07-.49-1.7-.01-.6.16-1.18.49-1.67.31-.46.78-.82,1.18-1.14.66-.52,1.29-1.01,1.29-1.86v-5.35h.78c3.59,0,6.73-.08,8.93-1.02.9-.38,1.72-.9,2.6-1.45,1.88-1.18,4.01-2.52,7.2-2.52,2.56,0,4.93.96,7.04,1.8,1.49.6,2.89,1.16,3.94,1.16h.41c1.05,0,2.45-.56,3.94-1.17,2.1-.84,4.47-1.8,7.03-1.8,3.19,0,5.32,1.34,7.2,2.52.87.55,1.7,1.07,2.59,1.45,2.19.94,5.34,1.02,8.93,1.02h.78v5.35c0,.85.63,1.34,1.29,1.86.41.32.87.68,1.18,1.14.33.49.5,1.07.49,1.7.01.6-.16,1.18-.49,1.67-.31.46-.76.81-1.18,1.14-.66.52-1.29,1.01-1.29,1.86v16.96c0,.85.63,1.34,1.29,1.86ZM199.4,69.95c-4.75,7.59-13.9,9.44-14.28,9.52-1.81.32-3.66.48-5.51.48h0c-9.57,0-18.41-4.16-27.37-8.8-1.01-.52-2.13-1.14-3.34-1.8-5.72-3.13-13.71-7.51-20.47-7.51-1.97,0-3.83.37-5.5,1.25l-.28.15-.02.31c-.05.88-.21,1.72-.5,2.49-1.08,2.89-4.6,5.95-6.32,7.17-3.93,2.83-8.77,5.72-14.8,5.72-.9,0-1.74-.13-2.48-.38-1.08-.37-2.01-1.02-2.69-1.9-.33-.42-.61-.91-.83-1.43-.17-.42-.28-.83-.35-1.34l-.05-.35-.34-.1c-2.34-.7-3.73-2.23-3.73-4.09,0-1.4,1.03-2.62,2.03-3.81,1.56-1.84,2.9-3.44.71-5.52-.21-.2-.44-.37-.68-.54-.32-.24-.62-.46-.89-.75-1.93-2.07-.79-6.36-.11-8.92l.07-.28c.74-2.81,1.87-5.71,3.46-8.88,2.16-4.29,4.76-9.12,8.41-12.17.07-.06.17-.09.26-.07.09.01.18.07.23.15.07.11.47.72,1.04,1.68l.62,1.03.38-1.13c1.01-3.03,2.69-5,4.98-5.84,2.45-.9,4.74.36,5.88,1.2l.48.35.31-.51c.73-1.19,2.08-2.63,4.34-2.74,2.48-.11,4.51,1.58,5.49,2.61l.36.37.39-.33c1.11-.93,4.01-3.04,6.91-2.65,2.75.37,3.8,2.77,4.13,3.79l.19.61.57-.28c1.29-.64,3.82-1.49,6.19.01,1.52.96,1.7,2.61,1.59,3.83l-.07.71.71-.12c1.78-.3,5.06-.51,7.01,1.48,1.53,1.57,1.63,3.59,1.45,5.02l-.09.7.7-.08c1.57-.18,3.67-.03,4.8,1.72.77,1.19.47,2.87.22,3.77l-.15.55.55.13c.91.22,2.51.79,2.98,2.1.35.97.24,2.59-.31,4.45l-.14.48.46.19c.79.32,2.23,1.1,3.01,2.64.76,1.51.73,3.39-.1,5.57l-.14.36.28.25c2.04,1.81,4.09,3.47,6.11,4.93,4.09,2.97,10.46,4.55,14.79.99,1.64-1.34,2.36-3.8,1.81-6.11-.49-2.04-1.84-3.45-3.7-3.86-3.27-.72-5.86,2.39-7.97,5.52-.07.1-.19.16-.31.14-.12-.01-.23-.09-.27-.2-1.94-4.63-2.03-8.48-.28-11.43,1.49-2.5,4.35-4.26,7.85-4.81l.47-.07v-.48c-.07-5.49,1.25-9.49,3.9-11.89,1.61-1.46,4.58-3.06,9.54-2.39.1.01.19.07.24.16.05.09.06.2.02.29-3.65,8.79-2.75,12.08-.76,19.3.17.64.36,1.3.54,2h0c1.83,6.84,1.27,12.69-1.67,17.39ZM274.65,61.08h0c.43.33.87.68,1.18,1.14.33.49.5,1.07.49,1.69.01.6-.16,1.18-.49,1.67-.31.46-.76.81-1.18,1.14-.66.52-1.29,1.01-1.29,1.86v5.2h-30.68s-30.68,0-30.68,0v-5.2c0-.85-.63-1.34-1.29-1.86-.43-.33-.87-.68-1.18-1.14-.33-.49-.5-1.07-.49-1.7-.01-.6.16-1.18.49-1.67.31-.46.76-.81,1.18-1.14.66-.52,1.29-1.01,1.29-1.86v-16.96c0-.85-.63-1.34-1.29-1.86-.43-.33-.87-.68-1.18-1.14-.33-.49-.5-1.07-.49-1.7-.01-.6.16-1.18.49-1.67.31-.46.78-.82,1.18-1.14.66-.52,1.29-1.01,1.29-1.86v-5.35h.78c3.59,0,6.73-.08,8.93-1.02.9-.38,1.72-.9,2.6-1.45,1.88-1.18,4.01-2.52,7.2-2.52,2.56,0,4.93.96,7.04,1.8,1.49.6,2.89,1.16,3.94,1.16h.41c1.05,0,2.45-.56,3.94-1.17,2.1-.84,4.47-1.8,7.03-1.8,3.19,0,5.32,1.34,7.2,2.52.87.55,1.7,1.07,2.59,1.45,2.19.94,5.34,1.02,8.93,1.02h.78v5.35c0,.85.63,1.34,1.29,1.86.41.32.87.68,1.18,1.14.33.49.5,1.07.49,1.7.01.6-.16,1.18-.49,1.67-.31.46-.76.81-1.18,1.14-.66.52-1.29,1.01-1.29,1.86v16.96c0,.85.63,1.34,1.29,1.86Z"/>
    <g>
      <g>
        <g>
          <g>
            <path class="cls-3" d="M103.13,57.43c.97,0,1.9.25,2.81,1.01.3.25.58.5.83.74.64.61.6,1.63-.09,2.19-.69.56-1.47,1.12-1.96,1.45-1.13.78-3.07,2.2-4.42,1.08-.68-.56.67-1.48.08-3.82-.46-1.83,1.34-2.65,2.75-2.65Z"/>
            <path class="cls-3" d="M179.61,80.5c-9.58,0-18.55-4.17-27.63-8.86-1.02-.53-2.15-1.15-3.35-1.8-7.31-4-18.29-10.01-25.46-6.25-.05.94-.23,1.83-.54,2.65-1.12,3.01-4.75,6.18-6.51,7.43-4,2.88-8.93,5.83-15.12,5.83-.96,0-1.86-.14-2.66-.41-1.18-.4-2.2-1.12-2.95-2.08-.36-.46-.66-.99-.9-1.56-.21-.5-.32-.98-.39-1.48-2.56-.77-4.12-2.5-4.12-4.62,0-1.6,1.1-2.9,2.16-4.16,1.73-2.05,2.49-3.11.75-4.76-.18-.17-.4-.33-.62-.5-.33-.24-.66-.49-.97-.82-2.13-2.29-.95-6.76-.24-9.44l.07-.28c.75-2.85,1.9-5.79,3.5-8.99,2.18-4.34,4.82-9.23,8.55-12.35.19-.16.45-.23.7-.2.25.04.47.18.61.39.13.2,1.62,2.49,3.18,5.5,6.49-3.88,15.74-4.33,16.81-4.37,5.72-.21,14.01.69,21.08,6.14,4.39,3.39,8.01,7.58,11.52,11.64.91,1.06,1.86,2.16,2.8,3.22,5.38,6.07,10.5,10.83,15.63,14.56,3.92,2.85,10.01,4.38,14.11,1.01,1.48-1.21,2.13-3.45,1.62-5.55-.44-1.83-1.64-3.09-3.29-3.45-2.95-.65-5.39,2.31-7.39,5.29-.18.27-.5.42-.82.39-.32-.03-.6-.24-.73-.54-2.01-4.8-2.09-8.81-.25-11.92,1.57-2.64,4.61-4.5,8.24-5.08-.06-5.65,1.31-9.79,4.09-12.3,1.7-1.54,4.81-3.22,9.99-2.53.27.04.51.2.65.43s.16.53.05.78c-3.58,8.62-2.69,11.85-.74,18.94.18.64.36,1.31.55,2.01,1.87,6.99,1.29,12.99-1.73,17.83-4.87,7.79-14.25,9.69-14.65,9.77-1.89.33-3.76.49-5.61.49ZM128.5,60.59c6.93,0,14.81,4.31,20.98,7.69,1.19.65,2.31,1.26,3.31,1.78,10.54,5.45,20.93,10.18,32.1,8.2.07-.02,9.03-1.84,13.48-8.98,2.75-4.4,3.26-9.93,1.52-16.42-.19-.7-.37-1.36-.54-2-1.85-6.74-2.9-10.58.37-18.98-3.82-.25-6.13,1.03-7.43,2.2-2.5,2.27-3.68,6.21-3.49,11.73.02.46-.33.86-.79.91-3.43.36-6.31,1.97-7.71,4.33-1.35,2.28-1.43,5.23-.23,8.8,1.7-2.32,4.58-5.46,8.27-4.64,2.3.51,4.03,2.29,4.62,4.77.66,2.75-.23,5.7-2.22,7.33-4.83,3.97-11.82,2.29-16.27-.95-5.24-3.81-10.44-8.65-15.91-14.82-.95-1.07-1.9-2.17-2.82-3.24-3.44-3.99-7.01-8.12-11.26-11.4-6.65-5.13-14.51-5.97-19.93-5.77-3.69.14-11.11,1.17-16.08,4.19,1.52,3.17,2.9,6.81,2.9,9.62,0,.5-.1,1-.28,1.5,3.61-2.13,7.92-.6,10.35,2.04.54.59,1.09,1.43,1.74,2.41.94,1.43,2.01,3.05,3.3,4.29.19.18.29.44.27.7-.02.26-.16.5-.37.65-.02.02-2.31,1.63-5.54,4.02-.44.32-.9.64-1.31.92-.08.05-.16.11-.24.16l2.85.48c1.96-1.09,4.11-1.54,6.35-1.54ZM103.58,30.08c-3.09,2.93-5.4,7.24-7.35,11.11-1.55,3.09-2.66,5.92-3.38,8.64l-.07.28c-.53,2.01-1.65,6.21-.18,7.78.2.21.46.4.73.61.26.19.53.39.79.64,3.03,2.87.92,5.36-.62,7.18-.9,1.06-1.75,2.07-1.75,3.02,0,2.13,2.58,2.88,3.37,3.06.38.09.66.41.69.8.05.62.11,1.07.32,1.57.18.43.4.82.66,1.15.53.68,1.27,1.2,2.12,1.49.62.21,1.32.32,2.09.32,5.68,0,10.31-2.78,14.09-5.5,2.26-1.61,5.09-4.47,5.89-6.61.21-.58.35-1.18.41-1.82l-3.98-.68s-.07-.01-.11-.03c-.42-.13-.7-.44-.76-.83-.12-.8.58-1.28,1.99-2.24.42-.28.84-.58,1.25-.88,2.09-1.55,3.78-2.77,4.74-3.45-1.1-1.23-2.04-2.65-2.81-3.83-.6-.91-1.12-1.7-1.57-2.19-1.97-2.14-5.45-3.4-8.27-1.64-1.14.71-2.14,1.59-3.19,2.52-.85.75-1.74,1.53-2.7,2.22-.38.27-.9.2-1.19-.16-.29-.36-.26-.88.07-1.2.13-.12.28-.26.45-.42,1.29-1.21,4.3-4.04,4.3-6.05,0-4.65-4.46-12.3-6.04-14.87Z"/>
            <path class="cls-3" d="M97.61,74.4c-.84,0-1.68-.05-2.54-.15-.48-.06-.83-.5-.77-.98.06-.48.5-.83.98-.77,4.02.48,9.89-.06,15.01-5.33.34-.35.9-.36,1.25-.02.35.34.36.9.02,1.25-3.84,3.96-8.62,6-13.94,6Z"/>
          </g>
          <path class="cls-3" d="M168.46,61.15c-.11,0-.22-.02-.33-.07-.42-.18-.61-.67-.43-1.09.92-2.12,1.05-3.88.38-5.22-.91-1.81-3.03-2.33-3.06-2.34-.23-.05-.43-.21-.54-.41s-.13-.46-.05-.68c.31-.83,1-3.25.56-4.46-.38-1.04-2.34-1.47-2.99-1.54-.26-.03-.49-.18-.62-.4-.13-.22-.15-.5-.05-.74.27-.66.84-2.6.17-3.64-1.3-2.02-4.73-1.04-4.77-1.03-.29.09-.61,0-.83-.22-.21-.22-.29-.54-.19-.83,0-.03.99-3.13-.94-5.1-2.25-2.3-7.08-.95-7.13-.93-.29.08-.61,0-.82-.22-.21-.22-.29-.54-.19-.83.03-.11.83-2.67-.9-3.76-2.75-1.74-5.89.49-5.92.51-.24.17-.55.2-.82.09-.27-.12-.45-.37-.49-.66-.02-.14-.46-3.5-3.42-3.9-3.19-.43-6.58,2.86-6.61,2.89-.17.17-.4.25-.64.24-.24-.02-.45-.13-.6-.32-.02-.03-2.28-2.94-5.11-2.79-2.74.12-3.81,2.9-3.82,2.92-.1.26-.32.46-.59.52-.27.06-.56-.02-.76-.22-.03-.02-2.73-2.61-5.51-1.59-3.5,1.28-4.49,5.56-4.81,6.97v.05c-.11.44-.56.72-1,.62-.44-.1-.72-.55-.62-.99v-.05c.39-1.62,1.53-6.55,5.86-8.14,2.69-.99,5.15.36,6.39,1.27.7-1.15,2.19-2.88,4.79-3,2.73-.13,4.92,1.74,5.91,2.77,1.28-1.07,4.26-3.19,7.34-2.77,2.69.36,4.04,2.48,4.58,4.16,1.44-.71,4.15-1.6,6.73.04,1.79,1.13,1.97,3.06,1.84,4.35,1.87-.32,5.37-.53,7.5,1.64,1.73,1.77,1.78,4.06,1.6,5.47,1.52-.18,4-.1,5.33,1.97.86,1.34.59,3.12.29,4.21,1.12.27,2.82.93,3.37,2.44.54,1.47.05,3.62-.3,4.79.95.39,2.45,1.24,3.3,2.9.91,1.8.8,4.03-.33,6.64-.14.31-.44.5-.76.5Z"/>
          <path class="cls-3" d="M164.34,72.54s-.07,0-.1,0c-.45-.06-.77-.47-.72-.92.39-3.16-1.47-3.73-3.11-4.24-.43-.13-.81-.25-1.11-.42-.87-.51-.91-1.56-.94-2.67-.04-1.18-.08-2.51-.97-3.51-1.53-1.71-4.57-.6-4.6-.59-.27.1-.58.05-.81-.13-.23-.19-.34-.48-.29-.77,0-.03.49-3.37-1.43-5-1.63-1.39-4.72-1.05-5.77-.8-.26.06-.52,0-.72-.18-.2-.17-.31-.43-.29-.69.15-2.07-.67-3.84-2.26-4.87-1.34-.87-2.97-.99-4.24-.3-3.47,1.87-4.83,1.99-8.46-.58-1.13-.8-2.27-1.07-3.37-.79-1.39.35-2.67,1.59-3.6,3.49-.2.41-.7.58-1.1.38-.41-.2-.58-.7-.38-1.1,1.15-2.34,2.81-3.88,4.67-4.36,1.56-.4,3.2-.04,4.73,1.04,3.06,2.17,3.76,2.07,6.72.47,1.8-.97,4.07-.83,5.92.37,1.8,1.17,2.89,3.12,3.02,5.34,1.5-.18,4.32-.26,6.19,1.32,1.78,1.51,2.08,3.87,2.07,5.29,1.39-.26,3.69-.36,5.23,1.35,1.29,1.44,1.35,3.24,1.39,4.55.01.45.04,1.13.14,1.31.15.08.45.17.75.26,1.56.48,4.81,1.49,4.26,6.02-.05.42-.41.73-.82.73Z"/>
        </g>
        <g>
          <path class="cls-3" d="M82.32,60.64c-.69-.54-1.07-.87-1.07-1.41v-16.96c0-.55.39-.88,1.07-1.41.44-.34.94-.74,1.3-1.27.4-.59.6-1.28.58-2,.02-.72-.19-1.41-.58-2-.36-.54-.86-.93-1.3-1.27-.69-.54-1.07-.87-1.07-1.41v-5.92h-1.34c-3.14,0-6.52-.04-8.71-.97-.85-.36-1.66-.87-2.52-1.41-1.94-1.22-4.15-2.61-7.5-2.61-2.66,0-5.1.98-7.24,1.84-1.44.58-2.79,1.12-3.73,1.12h-.41c-.94,0-2.3-.55-3.73-1.12-2.14-.86-4.57-1.84-7.24-1.84-3.35,0-5.56,1.39-7.5,2.61-.85.54-1.66,1.05-2.52,1.41-2.19.94-5.56.97-8.71.97h0s-1.34,0-1.34,0v5.92c0,.55-.39.88-1.07,1.41-.44.34-.94.74-1.3,1.27-.4.59-.6,1.28-.58,2-.02.72.19,1.41.58,2,.36.54.86.93,1.3,1.27.69.54,1.07.87,1.07,1.41v16.96c0,.55-.39.88-1.07,1.41-.44.34-.94.74-1.3,1.27-.4.59-.6,1.28-.58,2-.02.72.19,1.41.58,2,.36.54.86.93,1.3,1.27.69.54,1.07.87,1.07,1.41v5.68l-.04.08h.04s31.25,0,31.25,0h31.25s0,0,0,0h.04l-.04-.08v-5.68c0-.55.39-.88,1.07-1.41.44-.34.94-.74,1.3-1.27.4-.59.6-1.28.58-2,.02-.72-.19-1.41-.58-2-.36-.54-.86-.93-1.3-1.27ZM54.68,25.65c1.98-.8,4.22-1.7,6.5-1.7,2.78,0,4.56,1.12,6.45,2.31.88.56,1.8,1.13,2.79,1.55.81.35,1.69.59,2.61.76v36.02c-1.47-.23-3.08-.23-4.77-.24-2.59,0-5.26-.02-7.84-.8-.88-.27-1.76-.55-2.62-.82-2.67-.85-5-1.6-6.65-1.75-.03,0-.07,0-.1-.01V26.85c1.1-.18,2.29-.65,3.63-1.19ZM29.58,27.82c1-.42,1.91-1,2.79-1.55,1.89-1.19,3.67-2.31,6.45-2.31,2.28,0,4.52.9,6.5,1.7,1.39.56,2.62,1.05,3.75,1.21v34.1c-.07,0-.14.02-.2.02-1.65.15-3.98.89-6.65,1.75-.86.28-1.75.56-2.62.82-2.58.78-5.25.79-7.84.8-1.69,0-3.3.01-4.77.24V28.57c.92-.17,1.79-.41,2.6-.75ZM82.48,63.93c.01.37-.09.7-.29,1-.21.31-.56.58-.93.88-.77.61-1.74,1.36-1.74,2.78v3.78H20.48v-3.78c0-1.42-.96-2.17-1.74-2.78-.37-.29-.73-.57-.93-.88-.2-.3-.3-.64-.29-1v-.03s0-.03,0-.03c-.01-.37.09-.7.29-1,.21-.31.56-.58.93-.88.77-.61,1.74-1.36,1.74-2.78v-16.96c0-1.42-.96-2.17-1.74-2.78-.37-.29-.73-.57-.93-.88-.2-.3-.3-.64-.29-1v-.03s0-.03,0-.03c-.01-.37.09-.7.29-1,.21-.31.56-.58.93-.88.77-.61,1.74-1.36,1.74-2.78v-3.94s.08,0,.13,0c1.54,0,3.03-.01,4.44-.13v38.99h21.49c.41,1.54,1.81,2.68,3.47,2.68s3.06-1.14,3.47-2.68h21.49V28.82c1.41.12,2.89.13,4.42.13.04,0,.09,0,.13,0v3.94c0,1.42.96,2.17,1.74,2.78.37.29.73.57.93.88.2.3.3.64.29,1v.03s0,.03,0,.03c.01.37-.09.7-.29,1-.21.31-.56.58-.93.88-.77.61-1.74,1.36-1.74,2.78v16.96c0,1.42.96,2.17,1.74,2.78.37.29.73.57.93.88.2.3.3.64.29,1v.03s0,.03,0,.03Z"/>
          <path class="cls-3" d="M274.99,60.64c-.69-.54-1.07-.87-1.07-1.41v-16.96c0-.55.39-.88,1.07-1.41.44-.34.94-.74,1.3-1.27.4-.59.6-1.28.58-2,.02-.72-.19-1.41-.58-2-.36-.54-.86-.93-1.3-1.27-.69-.54-1.07-.87-1.07-1.41v-5.92h-1.34c-3.14,0-6.52-.04-8.71-.97-.85-.36-1.66-.87-2.52-1.41-1.94-1.22-4.15-2.61-7.5-2.61-2.66,0-5.1.98-7.24,1.84-1.44.58-2.79,1.12-3.73,1.12h-.41c-.94,0-2.3-.55-3.73-1.12-2.14-.86-4.57-1.84-7.24-1.84-3.35,0-5.56,1.39-7.5,2.61-.85.54-1.66,1.05-2.52,1.41-2.19.94-5.56.97-8.71.97h0s-1.34,0-1.34,0v5.92c0,.55-.39.88-1.07,1.41-.44.34-.94.74-1.3,1.27-.4.59-.6,1.28-.58,2-.02.72.19,1.41.58,2,.36.54.86.93,1.3,1.27.69.54,1.07.87,1.07,1.41v16.96c0,.55-.39.88-1.07,1.41-.44.34-.94.74-1.3,1.27-.4.59-.6,1.28-.58,2-.02.72.19,1.41.58,2,.36.54.86.93,1.3,1.27.69.54,1.07.87,1.07,1.41v5.68l-.04.08h.04s31.25,0,31.25,0h31.25s0,0,0,0h.04l-.04-.08v-5.68c0-.55.39-.88,1.07-1.41.44-.34.94-.74,1.3-1.27.4-.59.6-1.28.58-2,.02-.72-.19-1.41-.58-2-.36-.54-.86-.93-1.3-1.27ZM247.35,25.65c1.98-.8,4.22-1.7,6.5-1.7,2.78,0,4.56,1.12,6.45,2.31.88.56,1.8,1.13,2.79,1.55.81.35,1.69.59,2.61.76v36.02c-1.47-.23-3.08-.23-4.77-.24-2.59,0-5.26-.02-7.84-.8-.88-.27-1.76-.55-2.62-.82-2.67-.85-5-1.6-6.65-1.75-.03,0-.07,0-.1-.01V26.85c1.1-.18,2.29-.65,3.63-1.19ZM222.25,27.82c1-.42,1.91-1,2.79-1.55,1.89-1.19,3.67-2.31,6.45-2.31,2.28,0,4.52.9,6.5,1.7,1.39.56,2.62,1.05,3.75,1.21v34.1c-.07,0-.14.02-.2.02-1.65.15-3.98.89-6.65,1.75-.86.28-1.75.56-2.62.82-2.58.78-5.25.79-7.84.8-1.69,0-3.3.01-4.77.24V28.57c.92-.17,1.79-.41,2.6-.75ZM275.15,63.93c.01.37-.09.7-.29,1-.21.31-.56.58-.93.88-.77.61-1.74,1.36-1.74,2.78v3.78h-59.03v-3.78c0-1.42-.96-2.17-1.74-2.78-.37-.29-.73-.57-.93-.88-.2-.3-.3-.64-.29-1v-.03s0-.03,0-.03c-.01-.37.09-.7.29-1,.21-.31.56-.58.93-.88.77-.61,1.74-1.36,1.74-2.78v-16.96c0-1.42-.96-2.17-1.74-2.78-.37-.29-.73-.57-.93-.88-.2-.3-.3-.64-.29-1v-.03s0-.03,0-.03c-.01-.37.09-.7.29-1,.21-.31.56-.58.93-.88.77-.61,1.74-1.36,1.74-2.78v-3.94s.08,0,.13,0c1.54,0,3.03-.01,4.44-.13v38.99h21.49c.41,1.54,1.81,2.68,3.47,2.68s3.06-1.14,3.47-2.68h21.49V28.82c1.41.12,2.89.13,4.42.13.04,0,.09,0,.13,0v3.94c0,1.42.96,2.17,1.74,2.78.37.29.73.57.93.88.2.3.3.64.29,1v.03s0,.03,0,.03c.01.37-.09.7-.29,1-.21.31-.56.58-.93.88-.77.61-1.74,1.36-1.74,2.78v16.96c0,1.42.96,2.17,1.74,2.78.37.29.73.57.93.88.2.3.3.64.29,1v.03s0,.03,0,.03Z"/>
        </g>
      </g>
      <path class="cls-3" d="M287.11,5.55H5.56s0,138.5,0,140.35c-.19,61.49,34.03,106.17,62.78,132.82,31.34,29.05,66.63,46.35,77.71,48.77l.29.06.29-.06c11.09-2.41,46.38-19.71,77.71-48.77,28.74-26.65,62.97-71.32,62.78-132.82,0-1.85,0-140.35,0-140.35ZM283.2,9.46c0,8.97,0,47.02,0,80.67H9.47c0-33.65,0-71.7,0-80.67h273.74ZM63.78,226.94c-9.42-9.42-9.42-24.69,0-34.1,9.42-9.42,24.69-9.42,34.1,0,9.42,9.42,9.42,24.69,0,34.1-9.42,9.42-24.69,9.42-34.1,0ZM221.68,275.85c-32.56,30.19-66.3,45.4-75.34,47.68-9.04-2.28-42.78-17.5-75.34-47.68-.79-.73-1.59-1.48-2.39-2.25l77.73-82.52,77.73,82.52c-.8.76-1.6,1.51-2.39,2.25ZM122.23,150.07c0-13.32,10.79-24.11,24.11-24.11s24.11,10.79,24.11,24.11-10.79,24.11-24.11,24.11-24.11-10.79-24.11-24.11ZM228.89,226.94c-9.42,9.42-24.69,9.42-34.1,0-9.42-9.42-9.42-24.69,0-34.1,9.42-9.42,24.69-9.42,34.1,0,9.42,9.42,9.42,24.69,0,34.1ZM267.61,214.74l-121.27-116.96L25.07,214.74c-9.41-19.8-15.68-42.78-15.6-68.83,0-.77,0-24.37,0-51.88h273.73c0,27.5,0,51.11,0,51.88.08,26.05-6.18,49.03-15.6,68.83Z"/>
    </g>
  </g>
</svg>